<?xml version="1.0" encoding="UTF-8" standalone="no"?>
<!DOCTYPE svg PUBLIC "-//W3C//DTD SVG 1.0//EN"
 "http://www.w3.org/TR/2001/REC-SVG-20010904/DTD/svg10.dtd" [
 <!ATTLIST svg xmlns:xlink CDATA #FIXED "http://www.w3.org/1999/xlink">
]>
<!-- Generated by dot version 1.10 (Tue Dec 9 20:37:01 UTC+0200 2003)
     For user: Bill Gates   Title: G    Pages: 1 -->
<svg width="369px" height="373px"
 viewBox = "-1 -1 276 279"
 xmlns="http://www.w3.org/2000/svg" xmlns:xlink="http://www.w3.org/1999/xlink">
<g id="graph0" class="graph" style="font-family:Times-Roman;font-size:14.00;">
<title>G</title>
<g id="node1" class="node"><title>2</title>
<a xlink:href="file://D:\project\nowindlibraries\nowind\nowind.vcproj" xlink:title="nowind">
<polygon style="fill:none;stroke:black;" points="120,84 54,84 54,120 120,120 120,84"/>
<text text-anchor="middle" x="87" y="107">nowind</text>
</a></g>
<g id="node4" class="node"><title>1</title>
<a xlink:href="file://D:\project\nowindlibraries\ftdx\ftdx.vcproj" xlink:title="ftdx">
<polygon style="fill:none;stroke:black;" points="59,156 5,156 5,192 59,192 59,156"/>
<text text-anchor="middle" x="32" y="179">ftdx</text>
</a></g>
<g id="edge2" class="edge"><title>2-&gt;1</title>
<path style="fill:none;stroke:black;" d="M73,120C67,128 59,139 52,148"/>
<polygon style="fill:black;stroke:black;" points="55,150 46,156 49,146 55,150"/>
</g>
<g id="node7" class="node"><title>3</title>
<a xlink:href="file://D:\project\nowindlibraries\nwhost\nwhost.vcproj" xlink:title="nwhost">
<polygon style="fill:none;stroke:black;" points="196,156 132,156 132,192 196,192 196,156"/>
<text text-anchor="middle" x="164" y="179">nwhost</text>
</a></g>
<g id="edge4" class="edge"><title>2-&gt;3</title>
<path style="fill:none;stroke:black;" d="M106,120C116,129 127,139 137,149"/>
<polygon style="fill:black;stroke:black;" points="140,147 145,156 135,152 140,147"/>
</g>
<g id="node9" class="node"><title>0</title>
<a xlink:href="file://D:\project\nowindlibraries\generalGeneral.vcproj" xlink:title="General">
<polygon style="fill:none;stroke:black;" points="118,228 50,228 50,264 118,264 118,228"/>
<text text-anchor="middle" x="84" y="251">General</text>
</a></g>
<g id="edge6" class="edge"><title>2-&gt;0</title>
<path style="fill:none;stroke:black;" d="M87,120C86,145 85,189 84,218"/>
<polygon style="fill:black;stroke:black;" points="88,218 84,228 81,218 88,218"/>
</g>
<g id="node2" class="node"><title>4</title>
<a xlink:href="file://D:\project\nowindlibraries\sjasm\sjasm.vcproj" xlink:title="sjasm">
<polygon style="fill:none;stroke:black;" points="270,228 216,228 216,264 270,264 270,228"/>
<text text-anchor="middle" x="243" y="251">sjasm</text>
</a></g>
<g id="node3" class="node"><title>6</title>
<a xlink:href="file://D:\project\nowindlibraries\nwhostapp\nwhostapp.vcproj" xlink:title="nwhostapp">
<polygon style="fill:none;stroke:black;" points="204,12 114,12 114,48 204,48 204,12"/>
<text text-anchor="middle" x="159" y="35">nwhostapp</text>
</a></g>
<g id="edge10" class="edge"><title>6-&gt;2</title>
<path style="fill:none;stroke:black;" d="M141,48C132,57 122,67 112,77"/>
<polygon style="fill:black;stroke:black;" points="115,79 105,84 110,74 115,79"/>
</g>
<g id="edge8" class="edge"><title>6-&gt;3</title>
<path style="fill:none;stroke:black;" d="M160,48C161,73 162,117 163,146"/>
<polygon style="fill:black;stroke:black;" points="167,146 163,156 160,146 167,146"/>
</g>
<g id="node5" class="node"><title>5</title>
<a xlink:href="file://D:\project\nowindlibraries\msxsrc\msxsrc.vcproj" xlink:title="msxsrc">
<polygon style="fill:none;stroke:black;" points="198,228 136,228 136,264 198,264 198,228"/>
<text text-anchor="middle" x="167" y="251">msxsrc</text>
</a></g>
<g id="node6" class="node"><title>7</title>
<a xlink:href="file://D:\project\nowindlibraries\pynowind\pynowind.vcproj" xlink:title="pynowind">
<polygon style="fill:none;stroke:black;" points="96,12 12,12 12,48 96,48 96,12"/>
<text text-anchor="middle" x="54" y="35">pynowind</text>
</a></g>
<g id="edge12" class="edge"><title>7-&gt;2</title>
<path style="fill:none;stroke:black;" d="M62,48C66,56 70,66 75,75"/>
<polygon style="fill:black;stroke:black;" points="78,73 79,84 72,76 78,73"/>
</g>
<g id="edge14" class="edge"><title>3-&gt;4</title>
<path style="fill:none;stroke:black;" d="M184,192C194,201 205,211 215,221"/>
<polygon style="fill:black;stroke:black;" points="218,219 223,228 213,224 218,219"/>
</g>
<g id="edge16" class="edge"><title>3-&gt;5</title>
<path style="fill:none;stroke:black;" d="M165,192C166,200 166,209 166,218"/>
<polygon style="fill:black;stroke:black;" points="170,218 166,228 163,218 170,218"/>
</g>
<g id="edge18" class="edge"><title>3-&gt;0</title>
<path style="fill:none;stroke:black;" d="M144,192C134,201 122,212 111,221"/>
<polygon style="fill:black;stroke:black;" points="114,223 104,228 109,218 114,223"/>
</g>
<g id="node8" class="node"><title>8</title>
<a xlink:href="file://D:\project\nowindlibraries\emuv1\emuv1.vcproj" xlink:title="emuv1">
<polygon style="fill:none;stroke:black;" points="245,84 187,84 187,120 245,120 245,84"/>
<text text-anchor="middle" x="216" y="107">emuv1</text>
</a></g>
<g id="edge20" class="edge"><title>8-&gt;3</title>
<path style="fill:none;stroke:black;" d="M203,120C197,128 190,139 183,148"/>
<polygon style="fill:black;stroke:black;" points="186,150 177,156 180,146 186,150"/>
</g>
</g>
</svg>
